<?xml version="1.0" encoding="UTF-8" standalone="no"?>
<!-- Created with Inkscape (http://www.inkscape.org/) -->

<svg
   xmlns:dc="http://purl.org/dc/elements/1.1/"
   xmlns:cc="http://creativecommons.org/ns#"
   xmlns:rdf="http://www.w3.org/1999/02/22-rdf-syntax-ns#"
   xmlns:svg="http://www.w3.org/2000/svg"
   xmlns="http://www.w3.org/2000/svg"
   xmlns:sodipodi="http://sodipodi.sourceforge.net/DTD/sodipodi-0.dtd"
   xmlns:inkscape="http://www.inkscape.org/namespaces/inkscape"
   width="13.591997mm"
   height="15.24mm"
   viewBox="0 0 48.160617 53.999998"
   id="svg4317"
   version="1.1"
   inkscape:version="0.91 r13725"
   sodipodi:docname="btn-icon-map.svg">
  <defs
     id="defs4319">
    <filter
       inkscape:collect="always"
       style="color-interpolation-filters:sRGB"
       id="filter4814"
       x="-0.098314002"
       width="1.196628"
       y="-0.15396042"
       height="1.3079208">
      <feGaussianBlur
         inkscape:collect="always"
         stdDeviation="1.7320547"
         id="feGaussianBlur4816" />
    </filter>
  </defs>
  <sodipodi:namedview
     id="base"
     pagecolor="#ffffff"
     bordercolor="#666666"
     borderopacity="1.0"
     inkscape:pageopacity="0.0"
     inkscape:pageshadow="2"
     inkscape:zoom="2"
     inkscape:cx="62.92129"
     inkscape:cy="44.854773"
     inkscape:document-units="px"
     inkscape:current-layer="layer1"
     showgrid="false"
     fit-margin-top="0"
     fit-margin-left="0"
     fit-margin-right="0"
     fit-margin-bottom="0"
     inkscape:window-width="859"
     inkscape:window-height="416"
     inkscape:window-x="0"
     inkscape:window-y="0"
     inkscape:window-maximized="0"
     showguides="true"
     inkscape:guide-bbox="true">
    <sodipodi:guide
       position="93.945775,71.564652"
       orientation="1,0"
       id="guide4167" />
    <sodipodi:guide
       position="93.945775,71.564652"
       orientation="0,1"
       id="guide4169" />
  </sodipodi:namedview>
  <metadata
     id="metadata4322">
    <rdf:RDF>
      <cc:Work
         rdf:about="">
        <dc:format>image/svg+xml</dc:format>
        <dc:type
           rdf:resource="http://purl.org/dc/dcmitype/StillImage" />
        <dc:title></dc:title>
      </cc:Work>
    </rdf:RDF>
  </metadata>
  <g
     inkscape:label="Camada 1"
     inkscape:groupmode="layer"
     id="layer1"
     transform="translate(354.153,-282.21326)">
    <path
       sodipodi:nodetypes="ccccccccccccccc"
       inkscape:export-ydpi="90.718544"
       inkscape:export-xdpi="90.718544"
       inkscape:connector-curvature="0"
       id="path4140"
       d="m -225.32888,238.56649 -14.59654,-0.90495 -14.62459,2.36584 -4.02629,6.15507 -1.88481,18.47909 30.23688,-11.72332 11.41821,-4.51557 0.6271,-6.25265 z m -22.7597,5.21249 12.04721,-1.76293 5.25212,2.58343 -6.92437,4.85728 -11.46174,-1.72197 z"
       style="opacity:0.21600001;fill:#000000;fill-opacity:1;fill-rule:evenodd;stroke:none;stroke-width:0.17075205px;stroke-linecap:butt;stroke-linejoin:miter;stroke-opacity:1;filter:url(#filter4814)"
       transform="matrix(1.0258882,0,0,0.73498554,6.1955632,70.68644)" />
    <path
       style="fill:#000000;fill-opacity:1;fill-rule:evenodd;stroke:none;stroke-width:0.17075205px;stroke-linecap:butt;stroke-linejoin:miter;stroke-opacity:1"
       d="m -231.84426,212.47143 -14.83116,-1.80989 -14.01122,4.73168 -2.43054,12.31014 2.90607,36.95818 27.1975,-23.44664 10.24751,-9.03115 -0.99396,-12.50529 z m -21.40832,10.42499 11.59016,-3.52586 5.9219,5.16685 -5.66508,9.71457 -11.90818,-3.44394 z"
       id="path4118"
       inkscape:connector-curvature="0"
       inkscape:export-xdpi="180"
       inkscape:export-ydpi="180"
       sodipodi:nodetypes="ccccccccccccccc" />
    <path
       style="fill:#000000;fill-opacity:1;fill-rule:evenodd;stroke:none;stroke-width:1px;stroke-linecap:butt;stroke-linejoin:miter;stroke-opacity:1"
       d="m -369.97695,219.321 26.33973,-3.88909 -0.88389,25.98618 -1.06066,3.88908 -4.94975,3.18198 -5.48007,-2.47487 -1.06066,-7.77817 5.65685,-3.18198 3.53553,1.41421 0.88389,-13.78858 -18.91511,3.53553 0.70711,19.62221 -1.41421,4.77298 -5.30331,1.23743 -6.71751,-5.3033 1.94454,-5.83363 4.94975,-0.17678 3.35876,1.94455 z"
       id="path4818"
       inkscape:connector-curvature="0"
       inkscape:export-xdpi="89.995399"
       inkscape:export-ydpi="89.995399" />
    <path
       style="fill:#000000;fill-opacity:1;fill-rule:evenodd;stroke:none;stroke-width:0.12084848px;stroke-linecap:butt;stroke-linejoin:miter;stroke-opacity:1"
       d="m -333.37366,282.21326 -12.89526,10.12291 -7.88408,19.59357 1.13827,6.36453 11.73604,-9.98324 10.41619,-3.86593 9.3352,0.53073 15.53492,8.82123 -1.34498,-11.39106 -11.10334,-13.27375 -14.93296,-6.91899 z m 1.67737,6.04609 2.26815,4.46508 3.68017,0.5866 -3.34916,2.19134 c 0,0 1.23394,3.69529 1.27234,4.25279 0.0384,0.5575 -3.34357,-3.83101 -3.34357,-3.83101 l -1.2891,1.62989 -0.35057,-3.05726 -4.40223,-2.9176 5.22486,0.62011 0.28911,-3.93994 z m 16.43435,10.91201 c 0,0 1.55736,2.2734 1.88409,2.95112 l 2.24022,-0.014 -2.28352,1.4162 0.74022,2.61034 -2.3743,-1.93715 -1.16899,1.34078 -0.16202,-2.36871 -2.97486,-0.49582 3.69554,-1.23463 0.40362,-2.26816 z m -30.21508,2.5 0.49022,3.04748 3.07542,-0.0726 -2.38407,1.98464 -0.0922,0.7067 0.014,2.24023 -1.30586,-2.7109 -1.71649,1.51816 0.26537,-2.25838 -2.10056,0.004 3.09078,-1.89385 0.66341,-2.56565 z m 14.71648,3.43575 -10.42737,4.06425 -4.34637,4.0852 17.1229,22.9567 14.23464,-26.33938 -7.63687,-4.24442 -8.94693,-0.52235 z"
       id="path4888"
       inkscape:connector-curvature="0"
       inkscape:export-xdpi="179.39969"
       inkscape:export-ydpi="179.39969" />
  </g>
</svg>
