<?xml version="1.0" encoding="UTF-8" standalone="no"?>
<!-- Created with Inkscape (http://www.inkscape.org/) -->

<svg
   xmlns:dc="http://purl.org/dc/elements/1.1/"
   xmlns:cc="http://creativecommons.org/ns#"
   xmlns:rdf="http://www.w3.org/1999/02/22-rdf-syntax-ns#"
   xmlns:svg="http://www.w3.org/2000/svg"
   xmlns="http://www.w3.org/2000/svg"
   xmlns:sodipodi="http://sodipodi.sourceforge.net/DTD/sodipodi-0.dtd"
   xmlns:inkscape="http://www.inkscape.org/namespaces/inkscape"
   width="11.82072mm"
   height="11.821976mm"
   viewBox="0 0 41.88444 41.88889"
   id="svg4213"
   version="1.1"
   inkscape:version="0.91 r13725"
   sodipodi:docname="btn-icon-track.svg">
  <defs
     id="defs4215" />
  <sodipodi:namedview
     id="base"
     pagecolor="#ffffff"
     bordercolor="#666666"
     borderopacity="1.0"
     inkscape:pageopacity="0.0"
     inkscape:pageshadow="2"
     inkscape:zoom="0.35"
     inkscape:cx="60.227934"
     inkscape:cy="-124.76984"
     inkscape:document-units="px"
     inkscape:current-layer="layer1"
     showgrid="false"
     fit-margin-top="0"
     fit-margin-left="0"
     fit-margin-right="0"
     fit-margin-bottom="0"
     inkscape:window-width="1366"
     inkscape:window-height="739"
     inkscape:window-x="-4"
     inkscape:window-y="0"
     inkscape:window-maximized="1" />
  <metadata
     id="metadata4218">
    <rdf:RDF>
      <cc:Work
         rdf:about="">
        <dc:format>image/svg+xml</dc:format>
        <dc:type
           rdf:resource="http://purl.org/dc/dcmitype/StillImage" />
        <dc:title></dc:title>
      </cc:Work>
    </rdf:RDF>
  </metadata>
  <g
     inkscape:label="Camada 1"
     inkscape:groupmode="layer"
     id="layer1"
     transform="translate(-264.77207,-365.70347)">
    <g
       transform="translate(-81.269624,-519.87452)"
       id="g4179"
       inkscape:export-filename="/home/laudivan/Projetos/CoquetelMusical/www/images/btn-icon-track.png"
       inkscape:export-xdpi="90"
       inkscape:export-ydpi="90">
      <rect
         ry="0.44807518"
         rx="0.38839665"
         y="885.71057"
         x="346.16309"
         height="41.63842"
         width="41.63842"
         id="rect4169"
         style="opacity:1;fill:none;fill-opacity:1;stroke:none;stroke-width:0.36157838;stroke-linecap:round;stroke-linejoin:round;stroke-miterlimit:4;stroke-dasharray:none;stroke-dashoffset:0;stroke-opacity:1" />
      <path
         inkscape:connector-curvature="0"
         id="path4123"
         d="m 364.03014,885.57799 -0.64572,12.41239 0.27149,-0.01 0.0373,0.7178 -7.87276,-1.2264 -0.32358,8.9575 -0.2301,-0.036 -0.007,0.205 -8.11109,-2.2737 -1.10699,13.447 8.676,-1.1692 0.17963,9.5714 8.30301,1.2931 0.36032,-9.9734 0.19388,0.02 -10e-4,-0.057 8.3032,-0.8484 -0.005,-0.1467 7.57042,1.179 0.36889,-10.2146 -0.37139,-0.038 -10e-4,-0.069 8.30748,0.1053 -0.36906,-9.7432 -8.11377,0.3095 -0.004,-0.233 -8.303,-0.3335 -0.15198,4.2214 -0.4026,-5.0784 -0.0918,0 0.82997,-10.46838 -7.28824,-0.517 z m 0.92256,1.68073 4.33595,1.03425 c 0,0 0.55345,7.88741 0.18444,7.88741 -0.36902,0 -5.07388,-0.388 -5.07388,-0.388 l 0.55349,-8.53366 z m 4.70502,10.85966 c 0.36901,0 -0.18445,7.8875 -0.18445,7.8875 l -4.33595,1.0342 -0.55368,-8.5337 c 0,0 4.70505,-0.388 5.07408,-0.388 z m 7.76485,0.8863 c 0.54488,0 0.9081,0.044 0.9081,0.1737 0,0.5172 -0.27665,7.1434 -0.27665,7.1434 l -6.08884,-0.072 0.55331,-6.7874 c 0,0 3.2694,-0.4504 4.90408,-0.4575 z m 3.84398,0.1777 c 1.63513,0.01 4.9055,0.4344 4.9055,0.4344 l 0.55351,6.4475 -6.09046,0.069 c 0,0 -0.27683,-6.2941 -0.27683,-6.7854 0,-0.1228 0.36324,-0.1672 0.90828,-0.165 z m -22.22343,0.4743 c 1.7028,0.01 3.97314,0.078 3.97314,0.4015 0,0.5171 -0.27666,7.1113 -0.27666,7.1113 l -6.08884,-0.7757 0.55332,-6.7237 c 0,0 0.81736,-0.018 1.83904,-0.013 z m -11.24906,6.8664 c 0,0 7.1038,0 7.1038,0.5172 0,0.5172 -0.83034,8.0165 -0.83034,8.0165 l -6.18106,0.1292 -0.0924,-8.6629 z m 24.90816,1.42 6.08884,0.7757 -0.73794,6.077 c 0,0 -5.62773,0.7756 -5.62773,0.2585 0,-0.5173 0.27683,-7.1112 0.27683,-7.1112 z m -14.2126,0.6352 c 1.70281,0.01 3.97314,0.078 3.97314,0.4015 0,0.5171 -0.27684,7.1115 -0.27684,7.1115 l -6.08866,-0.776 0.55332,-6.7235 c 0,0 0.81737,-0.018 1.83904,-0.014 z m 6.88119,0.2238 c 1.5828,0 4.74836,0.4362 4.74836,0.4362 l 0.73793,6.077 -6.08884,0.776 c 0,0 -0.27684,-6.5944 -0.27684,-7.1115 0,-0.1293 0.3518,-0.1777 0.87939,-0.1777 z m -9.09,8.9676 6.08866,0.7758 -0.73777,6.0769 c 0,0 -5.62773,0.7758 -5.62773,0.2586 0,-0.5173 0.27684,-7.1113 0.27684,-7.1113 z"
         style="fill:#000000;fill-rule:evenodd;stroke:none;stroke-width:0.10811987px;stroke-linecap:butt;stroke-linejoin:miter;stroke-opacity:1" />
    </g>
  </g>
</svg>
