<?xml version="1.0" standalone="no"?>
<!DOCTYPE svg PUBLIC "-//W3C//DTD SVG 1.1//EN" "http://www.w3.org/Graphics/SVG/1.1/DTD/svg11.dtd" >
<svg xmlns="http://www.w3.org/2000/svg" xmlns:xlink="http://www.w3.org/1999/xlink" version="1.1">
<metadata></metadata>
<defs>
<font id="xilosaxilosa" horiz-adv-x="1079" >
<font-face units-per-em="2048" ascent="1536" descent="-512" />
<missing-glyph horiz-adv-x="495" />
<glyph horiz-adv-x="0" />
<glyph unicode="&#xd;" horiz-adv-x="1024" />
<glyph unicode=" "  horiz-adv-x="495" />
<glyph unicode="&#x09;" horiz-adv-x="495" />
<glyph unicode="&#xa0;" horiz-adv-x="495" />
<glyph unicode="!" horiz-adv-x="526" d="M106 1464h351l-131 -1079h-140zM113 256h293l-76 -217h-185z" />
<glyph unicode="&#x22;" horiz-adv-x="815" d="M106 1448l201 -37l19 -592l-156 -4zM487 1442l195 47l-35 -637l-147 -8z" />
<glyph unicode="$" horiz-adv-x="770" d="M96 1126l199 -10l29 98l92 5l8 -99h190l-8 -198l-164 -21l15 -221l213 20l20 -559l-217 6l-29 -120l-90 2l-26 106l-213 -4l10 152l178 20l12 193l-182 -19zM236 887l26 -221l66 4l-21 223zM451 307h102l-14 193l-82 -2z" />
<glyph unicode="&#x26;" horiz-adv-x="3481" d="M55 -160l193 301l74 -65l-199 -277zM197 -242l200 277l84 -41l-233 -268zM236 377l1507 1323l1515 -1213l-161 -442l-1323 561l-1377 -530zM565 502l105 -33l-29 -119l29 -31l75 117l74 -96l41 20l-41 109l117 -23l20 41l-147 58l43 135l-43 12l-51 -108l-68 96l-39 -21 l39 -114l-125 10v-53zM776 141l590 205l834 -4l538 -221v-144l-1950 58zM1180 213l22 -137h115l43 137h-180zM1479 1104l127 -92l-109 -127l35 -56l145 97l43 -150h66v150l137 -88l43 57l-151 135l129 160l-54 29l-127 -107l-20 154l-74 -15v-157l-147 75zM1710 225l41 -137 l137 8l29 150zM2191 78l119 -29l70 117l-180 33zM2548 426l149 51l-10 -137h51l33 119l96 -109l39 35l-94 137l129 92l-35 45l-113 -53l11 117l-56 10l-30 -127l-105 86l-45 -41l84 -96l-104 -78v-51zM3013 -51l84 45l206 -281l-65 -41zM3164 45l62 76l192 -299l-55 -41z " />
<glyph unicode="'" horiz-adv-x="409" d="M129 827l6 633l201 -51l-55 -596z" />
<glyph unicode="(" horiz-adv-x="696" d="M29 807l430 829l155 -71l-323 -879l262 -809l-145 -74l-369 740z" />
<glyph unicode=")" horiz-adv-x="696" d="M82 1565l156 71l430 -829l-11 -264l-368 -740l-146 74l263 809z" />
<glyph unicode="*" horiz-adv-x="929" d="M59 1128l70 111l242 -135l20 272l109 6l43 -249l213 165l84 -59l-224 -258l252 -240l-75 -82l-230 158l-12 -254l-115 -6l-47 266l-266 -166l-41 105l186 196z" />
<glyph unicode="+" horiz-adv-x="1034" d="M27 522l20 168l340 47l62 336h147l68 -334l335 -41l5 -166l-359 -57l4 -328l-217 -6l-39 342z" />
<glyph unicode="," horiz-adv-x="536" d="M70 -41l153 352h297l-332 -417z" />
<glyph unicode="-" horiz-adv-x="1019" d="M78 684h776l41 -240l-809 64z" />
<glyph unicode="." horiz-adv-x="485" d="M113 270h293l-76 -217h-185z" />
<glyph unicode="0" horiz-adv-x="1107" d="M109 1339l903 58l-140 -1286l-665 -52zM354 1110l70 -815l244 31l88 804z" />
<glyph unicode="1" horiz-adv-x="524" d="M27 991l163 383v12h160l82 -1345l-254 12v938h-151z" />
<glyph unicode="2" horiz-adv-x="1024" d="M102 63l39 725l494 13l39 364l-455 39l-12 182l713 13l-66 -895l-479 51l12 -285l494 -104v-117z" />
<glyph unicode="3" horiz-adv-x="989" d="M86 1337l793 62l-88 -1360l-654 12l13 150l370 49l51 328l-391 36l-14 160l422 51v310l-479 26z" />
<glyph unicode="4" horiz-adv-x="1019" d="M55 1399h158l154 -637l194 -23l182 660l185 -25l-178 -1323l-175 12l-28 443l-422 22z" />
<glyph unicode="5" horiz-adv-x="1071" d="M121 1382l756 -14l-17 -178l-479 -39l41 -360l522 -15l31 -520l-170 -205l-643 -10v135l522 84l14 285l-508 -53z" />
<glyph unicode="6" horiz-adv-x="1126" d="M123 41l57 1335l692 -65l-12 -189l-463 31l37 -356l434 -13l197 -643zM387 266l350 37l-84 272l-231 -6z" />
<glyph unicode="7" horiz-adv-x="870" d="M27 1307l757 69l-176 -1327l-192 12l67 1082l-448 -33z" />
<glyph unicode="8" horiz-adv-x="1155" d="M100 1352l840 41l-102 -535l217 -211l-76 -592l-752 15l-102 581l117 170zM317 1186l101 -289h217l102 287zM342 616l102 -370l306 14l67 344z" />
<glyph unicode="9" horiz-adv-x="1056" d="M90 1294l846 58l-55 -1280l-680 26l12 195l440 -29l-37 318l-432 12zM336 1112l63 -309l244 6l55 319z" />
<glyph unicode=":" horiz-adv-x="491" d="M104 270h293l-75 -217h-185zM113 915h293l-56 -217h-184z" />
<glyph unicode=";" horiz-adv-x="538" d="M53 -41l154 352h297l-332 -417zM190 915h293l-55 -217h-184z" />
<glyph unicode="&#x3c;" horiz-adv-x="3155" d="M61 651l490 99l156 -242l-197 -399zM662 696l118 86l109 -43l-189 -88zM766 1042l45 41l219 -192l35 -80l-25 -266l-45 8l-22 268zM1120 1217l45 36l209 -264l6 -92l-67 -283l-66 11l43 309zM1493 600l131 313l-108 367l63 16l143 -342l-4 -96l-162 -289zM1739 430 l233 373l-45 481l96 12l93 -467l-37 -129l-273 -319zM1958 78l534 1212l564 -737l-267 -461zM2466 260l43 -55l237 106l-131 70zM2726 545l70 -37l69 70l-125 73z" />
<glyph unicode="=" horiz-adv-x="1167" d="M80 535h907l49 -242l-946 63zM80 772l10 178l946 64l-49 -242h-907z" />
<glyph unicode="&#x3e;" horiz-adv-x="3153" d="M59 723l449 543l197 -400l-156 -241zM659 678l39 45l189 -88l-109 -43zM764 332l207 221l22 268l45 8l25 -266l-35 -80l-219 -192zM1118 158l170 282l-43 310l66 10l67 -283l-6 -92l-209 -264zM1491 774l63 31l162 -289l4 -96l-143 -342l-64 16l109 367zM1737 944l67 49 l273 -319l37 -129l-93 -467l-96 12l45 481zM1956 1296l831 -14l267 -461l-564 -737zM2464 1114l149 -121l131 70l-237 106zM2724 829l14 -106l125 74l-70 69z" />
<glyph unicode="?" horiz-adv-x="1140" d="M39 1315l930 158l110 -650l-209 -237q-41 -45 -77.5 -87t-65.5 -77q-34 -39 -65 -76q-2 -2 -24 -3t-48 -3q-31 -2 -68 -4l291 510l-113 330l-323 -56l31 -432l-101 -20zM416 221h293l-76 -217h-184z" />
<glyph unicode="@" horiz-adv-x="1740" d="M106 223l156 1045l1100 73l246 -217l20 -899l-1132 72l168 725l499 -84l41 -524l226 -13l-74 729l-936 -14l-72 -907l1079 -39l-4 -119l-1097 -47zM731 471l287 -27l-23 314l-182 57z" />
<glyph unicode="A" horiz-adv-x="1107" d="M111 1393l817 -37l63 -1282l-112 -27l-138 410l-372 -37l-86 -346l-86 10zM369 670l336 -15l-113 467l-127 -12z" />
<glyph unicode="B" horiz-adv-x="1191" d="M115 1393l805 -13l-154 -573l346 -166l-125 -606l-790 33zM283 1130l94 -282h176l129 326zM346 598l92 -377l328 -10l111 319z" />
<glyph unicode="C" horiz-adv-x="1015" d="M96 1393l846 -82l-29 -178l-563 -31l84 -797l488 8v-166l-676 -100z" />
<glyph unicode="D" horiz-adv-x="1120" d="M121 1493l969 -485l-52 -611l-856 -436zM338 1141l86 -840l393 268l23 297z" />
<glyph unicode="E" horiz-adv-x="991" d="M113 1393l776 -15l-31 -178l-455 -31l-49 -350l504 -37v-141l-463 -61l45 -316l434 -10l11 -156l-695 -51z" />
<glyph unicode="F" horiz-adv-x="970" d="M127 1395l827 -39l-39 -189l-432 -12l-102 -498l471 -49v-143l-485 -62l-88 -356h-125z" />
<glyph unicode="G" horiz-adv-x="1222" d="M104 1395l938 -21v-166l-608 -88l55 -841l306 28l102 297l-262 43l-23 144h512l-110 -717l-772 -29z" />
<glyph unicode="H" horiz-adv-x="1134" d="M115 1393l190 -13l101 -610l294 -12l91 612l174 -12l49 -1303l-113 2l-137 498l-387 -37l-47 -430l-142 -6z" />
<glyph unicode="I" horiz-adv-x="460" d="M123 61l12 1319l174 13l76 -1344z" />
<glyph unicode="J" horiz-adv-x="872" d="M4 485l111 80l286 -278l121 63l150 1039l157 -3l-69 -1169l-395 -235z" />
<glyph unicode="K" horiz-adv-x="1034" d="M123 1386l176 -6l139 -479l105 8l252 457l147 -39l-199 -582l226 -288l-95 -402h-137l-49 318l-151 141l-64 6l-156 -471l-127 10z" />
<glyph unicode="L" horiz-adv-x="800" d="M127 39l25 1352h247l-82 -1094l410 -45l2 -164z" />
<glyph unicode="M" horiz-adv-x="1523" d="M113 1393h338l362 -858l158 833l321 25l119 -1299h-160l-145 858l-164 -870l-207 -27l-323 766l-52 -778h-118z" />
<glyph unicode="N" horiz-adv-x="1243" d="M109 1391h335l426 -865l62 811l119 15l77 -1278l-221 -15l-499 760l-54 -772h-116z" />
<glyph unicode="O" horiz-adv-x="1198" d="M106 1393h992l-140 -1284l-725 -52zM336 1092l115 -793l344 51l88 783z" />
<glyph unicode="P" horiz-adv-x="1118" d="M119 1393l979 -97l-359 -847l-321 24l-119 -418l-109 11zM332 1069l63 -346l238 -16l141 362h-442z" />
<glyph unicode="Q" horiz-adv-x="1177" d="M96 1366l994 25l-140 -1235l-229 -27v-141l-191 -37v164l-307 -25zM326 1059l102 -727h12l90 14v152l191 -25v-88l51 12h12l70 705z" />
<glyph unicode="R" horiz-adv-x="1181" d="M119 1393l975 -52l-281 -720l205 -523l-76 -37l-500 431l-118 -412l-144 8zM354 1108l62 -338l182 10l174 365z" />
<glyph unicode="S" horiz-adv-x="1017" d="M109 1393l698 -13l-12 -182l-453 -49l39 -381l504 43l26 -752l-778 -12l12 117l482 104l24 285l-493 -41z" />
<glyph unicode="T" horiz-adv-x="929" d="M70 1120l39 266l753 -6v-192l-272 -27l26 -1108h-319l88 1092z" />
<glyph unicode="U" horiz-adv-x="1081" d="M121 1391l160 2l141 -1022l244 -43l36 1056h191l74 -1335l-795 37z" />
<glyph unicode="V" horiz-adv-x="1077" d="M57 1391l152 20l270 -1014h51l361 1010l141 -10l-340 -1325l-391 12z" />
<glyph unicode="W" horiz-adv-x="1636" d="M102 1372l158 21l203 -973l229 905h228l299 -809l135 864l172 -18l-158 -1319l-285 27l-256 878l-190 -891l-322 -14z" />
<glyph unicode="X" horiz-adv-x="1261" d="M92 63l375 599l-293 718l172 15l303 -480l264 465l148 -12l-281 -704l394 -615h-261l-305 428l-256 -399z" />
<glyph unicode="Y" horiz-adv-x="894" d="M66 1389l172 -25l235 -438l258 393l125 -29l-342 -692l92 -528l-317 -27l41 543z" />
<glyph unicode="Z" horiz-adv-x="1026" d="M109 49v225l477 881l-400 41v182l674 15l39 -238l-537 -889l568 8v-157z" />
<glyph unicode="^" horiz-adv-x="1705" />
<glyph unicode="`" horiz-adv-x="542" d="M18 1249l250 125l215 -221l-73 -74z" />
<glyph unicode="a" horiz-adv-x="1015" d="M68 618l516 -34v170l-355 -15l-10 140l514 96l82 -733l94 -37l6 -2l-10 -129l-121 4l-708 -19zM238 430l28 -221l303 -10l15 231h-346z" />
<glyph unicode="b" horiz-adv-x="995" d="M66 1346l137 12l69 -514l631 51l-55 -842l-686 -18zM301 647l35 -418l354 -8l-4 465z" />
<glyph unicode="c" horiz-adv-x="925" d="M72 930l747 -58l-6 -143l-528 -10l73 -516l465 28l13 -135l-648 -98z" />
<glyph unicode="d" horiz-adv-x="962" d="M51 879l635 6l19 514h137l24 -1313l-684 -41zM283 688l36 -461l355 39l-6 422h-385z" />
<glyph unicode="e" horiz-adv-x="958" d="M80 891l784 24l-6 -557l-528 13l-2 -174l415 -15l11 -98l-590 -55zM342 514l330 14l-35 220l-285 8z" />
<glyph unicode="f" horiz-adv-x="806" d="M102 741l160 13l-57 448l385 170l53 -106l-205 -146l33 -350l268 2l11 -123l-263 -65l19 -537l-137 -14l-72 524l-172 -27z" />
<glyph unicode="g" horiz-adv-x="1026" d="M104 940l822 -53l-35 -1141l-625 -12l-10 135l446 43l29 149l-514 9zM307 717l88 -459l312 -4l16 451z" />
<glyph unicode="h" horiz-adv-x="997" d="M35 1475l172 10l94 -684l617 73l-60 -835l-166 6l-6 584l-362 -68l24 -526l-186 -15z" />
<glyph unicode="i" horiz-adv-x="446" d="M98 35l90 833l131 -2l-14 -839zM170 1169l195 -12l-17 -184h-168z" />
<glyph unicode="j" horiz-adv-x="811" d="M94 -195l479 -96l136 1213l-353 10l-8 -176l133 -45l-47 -779l-315 31zM502 1243l203 -12l-17 -199h-178z" />
<glyph unicode="k" horiz-adv-x="899" d="M76 1368l139 6l78 -520l428 348l86 -59l-371 -443l373 -168l-14 -454l-136 2l-69 303l-252 121l-41 -445l-176 -10z" />
<glyph unicode="l" horiz-adv-x="448" d="M123 1329l131 10l96 -1282l-211 -18z" />
<glyph unicode="m" horiz-adv-x="1396" d="M59 918l232 32l8 -106l532 69l3 -84l501 50l-61 -834l-172 6l4 625l-291 -68l-37 -563l-153 6l-7 625l-296 -78l20 -539l-141 -14z" />
<glyph unicode="n" horiz-adv-x="1062" d="M98 930l236 31l12 -115l623 53l-58 -872l-157 6l-6 651l-383 -57l20 -586l-145 -14z" />
<glyph unicode="o" horiz-adv-x="940" d="M57 887h807l-82 -858l-637 22v2zM238 711l77 -494l301 -39l72 502z" />
<glyph unicode="p" horiz-adv-x="972" d="M111 860l856 14l-140 -794l-524 -14l-8 -515l-137 -2zM307 639l12 -377l330 -8l99 408z" />
<glyph unicode="q" horiz-adv-x="1042" d="M152 72l145 831l682 -53l-47 -1311l-137 2l-9 514zM385 258l385 -6l14 422l-354 45z" />
<glyph unicode="r" horiz-adv-x="931" d="M131 930l258 26l6 -75l447 18l18 -151l-452 -93l32 -622l-164 -17z" />
<glyph unicode="s" horiz-adv-x="954" d="M80 889l606 18v-135l-434 -65l45 -172l528 65l49 -518l-718 -47l-6 137l505 84l-4 129l-520 -43z" />
<glyph unicode="t" horiz-adv-x="804" d="M53 999h193l-25 361l232 -14v-340l278 -21l4 -111l-278 -49l6 -766l-158 -2l-39 756l-200 -14z" />
<glyph unicode="u" horiz-adv-x="966" d="M121 29l63 891l140 -9l18 -690l309 35l11 606l149 8l63 -780z" />
<glyph unicode="v" horiz-adv-x="1089" d="M61 881l125 47l361 -588h45l289 618l147 -32l-336 -858l-272 4z" />
<glyph unicode="w" horiz-adv-x="1404" d="M84 952l135 -18l191 -731l176 30l76 652l149 -8l23 -644l170 11l249 692l129 8l-215 -899l-964 -39z" />
<glyph unicode="x" horiz-adv-x="1107" d="M45 31l320 465l-283 450l194 12l293 -340l326 357l145 -64l-333 -446l294 -430l-202 -6l-291 268l-258 -268z" />
<glyph unicode="y" horiz-adv-x="991" d="M53 -375l291 471l-283 733l111 56l307 -531l381 617l109 -39l-314 -834l-501 -544z" />
<glyph unicode="z" horiz-adv-x="921" d="M115 53l12 189l420 506l-379 45l6 143l621 -4l49 -205l-463 -463l450 -16v-160z" />
<glyph unicode="~" horiz-adv-x="1705" />
<glyph unicode="&#xa1;" horiz-adv-x="565" d="M106 40h351l-131 1078h-140zM113 1247h293l-76 217h-185z" />
<glyph unicode="&#xa8;" horiz-adv-x="1046" d="M139 1280l285 31l-49 -215l-180 -21zM668 1298l278 -30l-92 -197l-178 19z" />
<glyph unicode="&#xaa;" horiz-adv-x="512" d="M47 1102l256 -15v82l-174 -6l-6 70l254 47l41 -362l47 -19h2l-4 -65l-62 2l-348 -11zM51 727h416l20 -92l-432 22zM131 1012l14 -111l150 -4l8 115h-172z" />
<glyph unicode="&#xad;" horiz-adv-x="1019" d="M78 684h776l41 -240l-809 64z" />
<glyph unicode="&#xae;" horiz-adv-x="1705" />
<glyph unicode="&#xb4;" horiz-adv-x="542" d="M59 1161l215 221l250 -125l-391 -170z" />
<glyph unicode="&#xb9;" horiz-adv-x="514" d="M110 1179l107 202v6h105l54 -708l-167 6v494h-99z" />
<glyph unicode="&#xba;" horiz-adv-x="491" d="M47 1235h399l-43 -426l-313 10v2zM51 727h416l20 -92l-432 22zM135 1145l39 -242l150 -20l36 250z" />
<glyph unicode="&#xbf;" horiz-adv-x="1138" d="M39 108l930 -157l110 649l-209 237q-41 45 -77.5 87t-65.5 77q-34 39 -65 76q-2 2 -24 3t-48 3q-31 2 -68 4l291 -510l-113 -330l-323 56l31 432l-101 20zM416 1202h293l-76 217h-184z" />
<glyph unicode="&#xc0;" d="M111 1393l817 -37l63 -1282l-112 -27l-138 410l-372 -37l-86 -346l-86 10zM213 1607l250 125l215 -221l-73 -74zM369 670l336 -15l-113 467l-127 -12z" />
<glyph unicode="&#xc1;" d="M111 1393l817 -37l63 -1282l-112 -27l-138 410l-372 -37l-86 -346l-86 10zM369 670l336 -15l-113 467l-127 -12zM426 1537l214 210l249 -119l-390 -162z" />
<glyph unicode="&#xc2;" d="M111 1393l817 -37l63 -1282l-112 -27l-138 410l-372 -37l-86 -346l-86 10zM176 1563l367 295l344 -299l-43 -103l-305 146l-330 -111zM369 670l336 -15l-113 467l-127 -12z" />
<glyph unicode="&#xc3;" horiz-adv-x="1069" d="M82 1356l86 -1272l86 -10l86 346l373 37l137 -410l113 27l-64 1282h-817zM221 1559l17 133l387 6l194 131l60 -197l-215 -139zM340 670l96 440l127 12l113 -467z" />
<glyph unicode="&#xc4;" />
<glyph unicode="&#xc7;" horiz-adv-x="999" d="M88 1393l846 -82l-29 -178l-563 -31l84 -797l487 8v-166l-217 -28l-12 -185l-164 -16l-45 172l-237 -43z" />
<glyph unicode="&#xc8;" horiz-adv-x="968" d="M105 1394l776 -15l-31 -178l-455 -31l-49 -350l504 -37v-141l-463 -61l45 -317l434 -10l11 -156l-695 -51zM165 1636l250 125l215 -221l-73 -74z" />
<glyph unicode="&#xc9;" horiz-adv-x="995" d="M105 1394l776 -15l-31 -178l-455 -31l-49 -350l504 -37v-141l-463 -61l45 -317l434 -10l11 -156l-695 -51zM299 1520l202 206l235 -116l-367 -159z" />
<glyph unicode="&#xca;" horiz-adv-x="995" d="M86 1394l776 -15l-31 -178l-455 -31l-49 -350l504 -37v-141l-463 -61l45 -317l434 -10l11 -156l-695 -51zM115 1561l367 295l344 -299l-43 -103l-305 146l-330 -111z" />
<glyph unicode="&#xcc;" horiz-adv-x="458" />
<glyph unicode="&#xcd;" horiz-adv-x="458" d="M124 58l12 1331l175 13l77 -1357zM173 1590l131 288l152 -163l-238 -222z" />
<glyph unicode="&#xd1;" horiz-adv-x="1245" d="M109 1391h335l426 -865l62 811l119 15l77 -1278l-221 -15l-499 760l-54 -772h-116zM242 1596l19 136l436 6l219 135l68 -201l-243 -144z" />
<glyph unicode="&#xd3;" horiz-adv-x="1208" d="M125 1390h979l-138 -1267l-716 -51zM352 1093l113 -782l340 50l87 772zM510 1567l215 221l250 -125l-391 -170z" />
<glyph unicode="&#xd4;" horiz-adv-x="1208" d="M125 1390h979l-138 -1267l-716 -51zM272 1553l367 295l344 -299l-43 -103l-305 146l-330 -111zM352 1093l113 -782l340 50l87 772z" />
<glyph unicode="&#xd5;" horiz-adv-x="1208" d="M125 1390h979l-138 -1267l-716 -51zM231 1556l19 137l433 6l217 135l67 -202l-240 -144zM352 1093l113 -782l340 50l87 772z" />
<glyph unicode="&#xda;" horiz-adv-x="1024" d="M86 1391l51 -1305l795 -37l-74 1335h-190l-37 -1056l-244 43l-141 1022zM342 1534l199 276l233 -157l-364 -211z" />
<glyph unicode="&#xdc;" d="M121 1391l160 2l141 -1022l244 -43l36 1056h191l74 -1335l-795 37zM197 1714l264 31l-45 -201l-168 -18zM598 1731l260 -27l-86 -182l-164 16z" />
<glyph unicode="&#xdf;" horiz-adv-x="1705" />
<glyph unicode="&#xe0;" horiz-adv-x="983" d="M80 618l516 -34v170l-355 -15l-10 140l514 96l82 -733l94 -37l6 -2l-10 -129l-121 4l-708 -19zM204 1218l250 125l215 -221l-73 -74zM250 430l28 -221l303 -10l15 231h-346z" />
<glyph unicode="&#xe1;" horiz-adv-x="987" d="M80 618l516 -34v170l-355 -15l-10 140l514 96l82 -733l94 -37l6 -2l-10 -129l-121 4l-708 -19zM250 430l28 -221l303 -10l15 231h-346zM426 1128l214 210l249 -119l-390 -162z" />
<glyph unicode="&#xe2;" horiz-adv-x="972" d="M80 618l516 -34v170l-355 -15l-10 140l514 96l82 -733l94 -37l6 -2l-10 -129l-121 4l-708 -19zM153 1137l367 295l344 -299l-43 -103l-305 146l-330 -111zM250 430l28 -221l303 -10l15 231h-346z" />
<glyph unicode="&#xe3;" horiz-adv-x="995" d="M80 618l516 -34v170l-355 -15l-10 140l514 96l82 -733l94 -37l6 -2l-10 -129l-121 4l-708 -19zM163 1126l17 133l387 6l194 131l60 -196l-215 -140zM250 430l28 -221l303 -10l15 231h-346z" />
<glyph unicode="&#xe4;" />
<glyph unicode="&#xe7;" horiz-adv-x="905" d="M72 954l747 -57l-6 -143l-528 -11l73 -516l465 29l13 -135l-222 -33l-10 -162l-147 -14l-37 145l-232 -34z" />
<glyph unicode="&#xe8;" horiz-adv-x="1001" d="M118 902l794 25l-6 -564l-535 13l-2 -177l420 -15l11 -99l-597 -56zM186 1214l250 125l215 -221l-73 -74zM383 520l334 15l-35 222l-289 9z" />
<glyph unicode="&#xe9;" horiz-adv-x="944" d="M65 902l794 25l-6 -564l-535 13l-2 -177l420 -15l11 -99l-597 -56zM299 1109l202 206l235 -116l-367 -159zM330 520l334 15l-35 222l-289 9z" />
<glyph unicode="&#xea;" horiz-adv-x="954" d="M64 891l784 24l-6 -557l-528 13l-2 -174l415 -15l11 -98l-590 -55zM67 1137l367 295l344 -299l-43 -103l-305 146l-330 -111zM326 514l330 14l-35 220l-285 8z" />
<glyph unicode="&#xeb;" horiz-adv-x="935" d="M55 891l84 -862l590 55l-10 98l-416 15l2 174l529 -13l6 557zM115 1284l264 31l-45 -201l-168 -18zM317 514l11 242l284 -8l35 -220zM516 1300l260 -26l-86 -182l-164 16z" />
<glyph unicode="&#xed;" horiz-adv-x="552" d="M111 35l96 819l117 -10l-11 -817zM256 1028l129 289l154 -162l-238 -223z" />
<glyph unicode="&#xf1;" horiz-adv-x="1245" d="M121 930l236 31l12 -115l623 53l-58 -872l-157 6l-6 651l-383 -57l20 -586l-145 -14zM242 1153l19 136l436 6l219 135l68 -201l-243 -144z" />
<glyph unicode="&#xf3;" horiz-adv-x="995" d="M90 887h807l-82 -858l-637 22v2zM271 711l77 -494l301 -39l72 502zM430 1108l215 221l250 -125l-391 -170z" />
<glyph unicode="&#xf4;" horiz-adv-x="1089" d="M90 887h807l-82 -858l-637 22v2zM186 1143l367 295l344 -299l-43 -103l-305 146l-330 -111zM271 711l77 -494l301 -39l72 502z" />
<glyph unicode="&#xf5;" horiz-adv-x="995" d="M90 887h807l-82 -858l-637 22v2zM271 711l77 -494l301 -39l72 502zM274 1087l17 133l387 6l194 131l60 -196l-215 -140z" />
<glyph unicode="&#xf7;" horiz-adv-x="974" d="M29 729h866l47 -201l-905 54zM346 430h293l-76 -217h-184zM354 1075h293l-55 -217h-184z" />
<glyph unicode="&#xfa;" horiz-adv-x="958" d="M117 62l63 891l140 -9l18 -690l309 35l11 606l149 8l63 -780zM432 1118l215 221l250 -125l-391 -170z" />
<glyph unicode="&#xfb;" horiz-adv-x="1093" />
<glyph unicode="&#xfc;" horiz-adv-x="1009" d="M111 61l63 891l139 -8l19 -690l309 35l10 606l150 8l63 -780zM176 1284l264 31l-45 -201l-168 -18zM578 1300l260 -26l-86 -182l-164 16z" />
<glyph unicode="&#x2c6;" horiz-adv-x="821" d="M47 1180l367 295l344 -299l-43 -103l-305 146l-330 -111z" />
<glyph unicode="&#x2dc;" horiz-adv-x="772" d="M20 1110l17 133l387 6l194 131l60 -196l-215 -140z" />
<glyph unicode="&#x2000;" horiz-adv-x="939" />
<glyph unicode="&#x2001;" horiz-adv-x="1878" />
<glyph unicode="&#x2002;" horiz-adv-x="939" />
<glyph unicode="&#x2003;" horiz-adv-x="1878" />
<glyph unicode="&#x2004;" horiz-adv-x="626" />
<glyph unicode="&#x2005;" horiz-adv-x="469" />
<glyph unicode="&#x2006;" horiz-adv-x="313" />
<glyph unicode="&#x2007;" horiz-adv-x="313" />
<glyph unicode="&#x2008;" horiz-adv-x="234" />
<glyph unicode="&#x2009;" horiz-adv-x="375" />
<glyph unicode="&#x200a;" horiz-adv-x="104" />
<glyph unicode="&#x2010;" horiz-adv-x="1019" d="M78 684h776l41 -240l-809 64z" />
<glyph unicode="&#x2011;" horiz-adv-x="1019" d="M78 684h776l41 -240l-809 64z" />
<glyph unicode="&#x2012;" horiz-adv-x="1019" d="M78 684h776l41 -240l-809 64z" />
<glyph unicode="&#x2013;" horiz-adv-x="1226" d="M78 684h973l51 -240l-1014 64z" />
<glyph unicode="&#x2014;" horiz-adv-x="2250" d="M78 684h1945l103 -240l-2028 64z" />
<glyph unicode="&#x2018;" horiz-adv-x="1705" />
<glyph unicode="&#x201c;" horiz-adv-x="804" d="M106 1386l201 -36l19 -715l-156 -4zM487 1380l195 47l-35 -759l-147 -9z" />
<glyph unicode="&#x201d;" horiz-adv-x="1705" />
<glyph unicode="&#x202f;" horiz-adv-x="375" />
<glyph unicode="&#x205f;" horiz-adv-x="469" />
<glyph unicode="&#x25fc;" horiz-adv-x="972" d="M0 0v973h973v-973h-973z" />
</font>
</defs>
</svg>
